<svg xmlns="http://www.w3.org/2000/svg" xmlns:xlink="http://www.w3.org/1999/xlink" viewBox="0 0 1786.84 1786.84"><defs><style>.cls-1{isolation:isolate;}.cls-2{fill:url(#linear-gradient);}.cls-3{fill:url(#linear-gradient-2);}.cls-11,.cls-12,.cls-18,.cls-19,.cls-25,.cls-26,.cls-32,.cls-33,.cls-39,.cls-4,.cls-40,.cls-46,.cls-47,.cls-5,.cls-53,.cls-54,.cls-60,.cls-61,.cls-67,.cls-68,.cls-74,.cls-75,.cls-81,.cls-82{opacity:0.2;}.cls-100,.cls-101,.cls-102,.cls-103,.cls-104,.cls-105,.cls-11,.cls-114,.cls-12,.cls-127,.cls-18,.cls-19,.cls-25,.cls-26,.cls-32,.cls-33,.cls-39,.cls-4,.cls-40,.cls-46,.cls-47,.cls-5,.cls-53,.cls-54,.cls-60,.cls-61,.cls-67,.cls-68,.cls-74,.cls-75,.cls-81,.cls-82,.cls-97,.cls-98,.cls-99{mix-blend-mode:multiply;}.cls-4{fill:url(#radial-gradient);}.cls-5{fill:url(#radial-gradient-2);}.cls-6{fill:url(#linear-gradient-3);}.cls-7{fill:url(#linear-gradient-4);}.cls-8{fill:url(#radial-gradient-3);}.cls-9{fill:url(#linear-gradient-5);}.cls-10{fill:url(#linear-gradient-6);}.cls-11{fill:url(#radial-gradient-4);}.cls-12{fill:url(#radial-gradient-5);}.cls-13{fill:url(#linear-gradient-7);}.cls-14{fill:url(#linear-gradient-8);}.cls-15{fill:url(#radial-gradient-6);}.cls-16{fill:url(#linear-gradient-9);}.cls-17{fill:url(#linear-gradient-10);}.cls-18{fill:url(#radial-gradient-7);}.cls-19{fill:url(#radial-gradient-8);}.cls-20{fill:url(#linear-gradient-11);}.cls-21{fill:url(#linear-gradient-12);}.cls-22{fill:url(#radial-gradient-9);}.cls-23{fill:url(#linear-gradient-13);}.cls-24{fill:url(#linear-gradient-14);}.cls-25{fill:url(#radial-gradient-10);}.cls-26{fill:url(#radial-gradient-11);}.cls-27{fill:url(#linear-gradient-15);}.cls-28{fill:url(#linear-gradient-16);}.cls-29{fill:url(#radial-gradient-12);}.cls-30{fill:url(#linear-gradient-17);}.cls-31{fill:url(#linear-gradient-18);}.cls-32{fill:url(#radial-gradient-13);}.cls-33{fill:url(#radial-gradient-14);}.cls-34{fill:url(#linear-gradient-19);}.cls-35{fill:url(#linear-gradient-20);}.cls-36{fill:url(#radial-gradient-15);}.cls-37{fill:url(#linear-gradient-21);}.cls-38{fill:url(#linear-gradient-22);}.cls-39{fill:url(#radial-gradient-16);}.cls-40{fill:url(#radial-gradient-17);}.cls-41{fill:url(#linear-gradient-23);}.cls-42{fill:url(#linear-gradient-24);}.cls-43{fill:url(#radial-gradient-18);}.cls-44{fill:url(#linear-gradient-25);}.cls-45{fill:url(#linear-gradient-26);}.cls-46{fill:url(#radial-gradient-19);}.cls-47{fill:url(#radial-gradient-20);}.cls-48{fill:url(#linear-gradient-27);}.cls-49{fill:url(#linear-gradient-28);}.cls-50{fill:url(#radial-gradient-21);}.cls-51{fill:url(#linear-gradient-29);}.cls-52{fill:url(#linear-gradient-30);}.cls-53{fill:url(#radial-gradient-22);}.cls-54{fill:url(#radial-gradient-23);}.cls-55{fill:url(#linear-gradient-31);}.cls-56{fill:url(#linear-gradient-32);}.cls-57{fill:url(#radial-gradient-24);}.cls-58{fill:url(#linear-gradient-33);}.cls-59{fill:url(#linear-gradient-34);}.cls-60{fill:url(#radial-gradient-25);}.cls-61{fill:url(#radial-gradient-26);}.cls-62{fill:url(#linear-gradient-35);}.cls-63{fill:url(#linear-gradient-36);}.cls-64{fill:url(#radial-gradient-27);}.cls-65{fill:url(#linear-gradient-37);}.cls-66{fill:url(#linear-gradient-38);}.cls-67{fill:url(#radial-gradient-28);}.cls-68{fill:url(#radial-gradient-29);}.cls-69{fill:url(#linear-gradient-39);}.cls-70{fill:url(#linear-gradient-40);}.cls-71{fill:url(#radial-gradient-30);}.cls-72{fill:url(#linear-gradient-41);}.cls-73{fill:url(#linear-gradient-42);}.cls-74{fill:url(#radial-gradient-31);}.cls-75{fill:url(#radial-gradient-32);}.cls-76{fill:url(#linear-gradient-43);}.cls-77{fill:url(#linear-gradient-44);}.cls-78{fill:url(#radial-gradient-33);}.cls-79{fill:url(#linear-gradient-45);}.cls-80{fill:url(#linear-gradient-46);}.cls-81{fill:url(#radial-gradient-34);}.cls-82{fill:url(#radial-gradient-35);}.cls-83{fill:url(#linear-gradient-47);}.cls-84{fill:url(#linear-gradient-48);}.cls-85{fill:url(#radial-gradient-36);}.cls-86{fill:#24a6d3;}.cls-87{fill:#6bc3e1;}.cls-88{fill:url(#linear-gradient-49);}.cls-89{fill:url(#linear-gradient-50);}.cls-90,.cls-91{opacity:0.3;}.cls-90{fill:url(#linear-gradient-51);}.cls-91{fill:url(#linear-gradient-52);}.cls-92,.cls-93,.cls-94,.cls-95,.cls-96{opacity:0.4;}.cls-92{fill:url(#linear-gradient-53);}.cls-93{fill:url(#linear-gradient-54);}.cls-94{fill:url(#linear-gradient-55);}.cls-95{fill:url(#linear-gradient-56);}.cls-96{fill:url(#linear-gradient-57);}.cls-100,.cls-101,.cls-102,.cls-103,.cls-104,.cls-105,.cls-114,.cls-127,.cls-97,.cls-98,.cls-99{opacity:0.7;}.cls-97{fill:url(#radial-gradient-37);}.cls-98{fill:url(#radial-gradient-38);}.cls-99{fill:url(#radial-gradient-39);}.cls-100{fill:url(#radial-gradient-40);}.cls-101{fill:url(#radial-gradient-41);}.cls-102{fill:url(#radial-gradient-42);}.cls-103{fill:url(#radial-gradient-43);}.cls-104{fill:url(#radial-gradient-44);}.cls-105{fill:url(#radial-gradient-45);}.cls-106{fill:url(#linear-gradient-58);}.cls-107{fill:url(#linear-gradient-59);}.cls-108{fill:url(#linear-gradient-60);}.cls-109{fill:url(#linear-gradient-61);}.cls-110{fill:url(#linear-gradient-62);}.cls-111{fill:url(#linear-gradient-63);}.cls-112{fill:url(#linear-gradient-64);}.cls-113{fill:url(#linear-gradient-65);}.cls-114{fill:url(#radial-gradient-46);}.cls-115{fill:url(#linear-gradient-66);}.cls-116{fill:url(#linear-gradient-67);}.cls-117{fill:url(#linear-gradient-68);}.cls-118{fill:url(#linear-gradient-69);}.cls-119{fill:url(#linear-gradient-70);}.cls-120{fill:url(#linear-gradient-71);}.cls-121{fill:url(#linear-gradient-72);}.cls-122{fill:url(#linear-gradient-73);}.cls-123{fill:url(#linear-gradient-74);}.cls-124{fill:url(#linear-gradient-75);}.cls-125{fill:url(#linear-gradient-76);}.cls-126{fill:url(#linear-gradient-77);}.cls-127{fill:url(#radial-gradient-47);}.cls-128{fill:url(#linear-gradient-78);}.cls-129{fill:url(#linear-gradient-79);}</style><linearGradient id="linear-gradient" x1="840.44" y1="251.52" x2="945.29" y2="251.52" gradientUnits="userSpaceOnUse"><stop offset="0" stop-color="#fafafa"/><stop offset="1" stop-color="#f2f2f2"/></linearGradient><linearGradient id="linear-gradient-2" x1="843.98" y1="251.52" x2="948.83" y2="251.52" gradientUnits="userSpaceOnUse"><stop offset="0" stop-color="#fff"/><stop offset="1" stop-color="#fefefe"/></linearGradient><radialGradient id="radial-gradient" cx="-16.13" cy="389.23" r="76.04" gradientTransform="translate(905.36 -29.04) scale(0.77 0.41)" gradientUnits="userSpaceOnUse"><stop offset="0.34"/><stop offset="0.35" stop-color="#0a0a0a"/><stop offset="0.4" stop-color="#3d3d3d"/><stop offset="0.45" stop-color="#6b6b6b"/><stop offset="0.51" stop-color="#939393"/><stop offset="0.57" stop-color="#b4b4b4"/><stop offset="0.63" stop-color="#d0d0d0"/><stop offset="0.7" stop-color="#e5e5e5"/><stop offset="0.77" stop-color="#f4f4f4"/><stop offset="0.86" stop-color="#fcfcfc"/><stop offset="1" stop-color="#fff"/></radialGradient><radialGradient id="radial-gradient-2" cx="-16.13" cy="1046.6" r="76.04" gradientTransform="translate(905.36 17.25) scale(0.77 0.32)" gradientUnits="userSpaceOnUse"><stop offset="0.34"/><stop offset="0.35" stop-color="#0a0a0a"/><stop offset="0.43" stop-color="#434343"/><stop offset="0.51" stop-color="#757575"/><stop offset="0.59" stop-color="#a0a0a0"/><stop offset="0.67" stop-color="#c2c2c2"/><stop offset="0.75" stop-color="#ddd"/><stop offset="0.83" stop-color="#f0f0f0"/><stop offset="0.91" stop-color="#fbfbfb"/><stop offset="1" stop-color="#fff"/></radialGradient><linearGradient id="linear-gradient-3" x1="783.59" y1="72.01" x2="1002.15" y2="72.01" xlink:href="#linear-gradient"/><linearGradient id="linear-gradient-4" x1="790.23" y1="72.01" x2="1008.78" y2="72.01" xlink:href="#linear-gradient-2"/><radialGradient id="radial-gradient-3" cx="837.3" cy="50.54" r="121.9" gradientUnits="userSpaceOnUse"><stop offset="0" stop-color="#21a5d3"/><stop offset="0.34" stop-color="#37aed7"/><stop offset="1" stop-color="#6bc3e1"/></radialGradient><linearGradient id="linear-gradient-5" x1="1161.35" y1="-1331.56" x2="1266.21" y2="-1331.56" gradientTransform="translate(186.64 2097.82) rotate(-30)" xlink:href="#linear-gradient"/><linearGradient id="linear-gradient-6" x1="1164.89" y1="-1331.56" x2="1269.75" y2="-1331.56" gradientTransform="translate(186.64 2097.82) rotate(-30)" xlink:href="#linear-gradient-2"/><radialGradient id="radial-gradient-4" cx="398.63" cy="-3483.09" r="76.05" gradientTransform="matrix(0.77, 0, 0, 0.41, 202.73, 1656.43)" xlink:href="#radial-gradient"/><radialGradient id="radial-gradient-5" cx="398.78" cy="-3846.21" r="76.05" gradientTransform="matrix(0.77, 0, 0, 0.32, 315.38, 1672.09)" xlink:href="#radial-gradient-2"/><linearGradient id="linear-gradient-7" x1="1104.5" y1="-1511.08" x2="1323.06" y2="-1511.08" gradientTransform="translate(-731.5 1693.4)" xlink:href="#linear-gradient"/><linearGradient id="linear-gradient-8" x1="1111.14" y1="-1511.08" x2="1329.69" y2="-1511.08" gradientTransform="translate(-732.39 1690.08)" xlink:href="#linear-gradient-2"/><radialGradient id="radial-gradient-6" cx="1158.21" cy="-1532.55" r="121.9" gradientTransform="matrix(1, 0, 0, 1, -742.67, 1696.39)" xlink:href="#radial-gradient-3"/><linearGradient id="linear-gradient-9" x1="2231.04" y1="-2542.48" x2="2335.9" y2="-2542.48" gradientTransform="translate(1397.29 3821.68) rotate(-60)" xlink:href="#linear-gradient"/><linearGradient id="linear-gradient-10" x1="2234.58" y1="-2542.48" x2="2339.44" y2="-2542.48" gradientTransform="translate(1397.29 3821.68) rotate(-60)" xlink:href="#linear-gradient-2"/><radialGradient id="radial-gradient-7" cx="1780.32" cy="-6445.95" r="76.05" gradientTransform="matrix(0.77, 0, 0, 0.41, -1146.23, 3147.09)" xlink:href="#radial-gradient"/><radialGradient id="radial-gradient-8" cx="1780.29" cy="-7590.96" r="76.05" gradientTransform="matrix(0.77, 0, 0, 0.32, -950.51, 3080.13)" xlink:href="#radial-gradient-2"/><linearGradient id="linear-gradient-11" x1="2174.19" y1="-2721.99" x2="2392.75" y2="-2721.99" gradientTransform="translate(-2101.67 3205.1)" xlink:href="#linear-gradient"/><linearGradient id="linear-gradient-12" x1="2180.83" y1="-2721.99" x2="2399.39" y2="-2721.99" gradientTransform="translate(-2104.99 3199.35)" xlink:href="#linear-gradient-2"/><radialGradient id="radial-gradient-9" cx="2227.9" cy="-2743.46" r="121.9" gradientTransform="translate(-2121.03 3216.26)" xlink:href="#radial-gradient-3"/><linearGradient id="linear-gradient-13" x1="3762.45" y1="-3056.27" x2="3867.3" y2="-3056.27" gradientTransform="translate(3307.79 4708.85) rotate(-90)" xlink:href="#linear-gradient"/><linearGradient id="linear-gradient-14" x1="3765.98" y1="-3056.27" x2="3870.84" y2="-3056.27" gradientTransform="translate(3307.79 4708.85) rotate(-90)" xlink:href="#linear-gradient-2"/><radialGradient id="radial-gradient-10" cx="3758.09" cy="-7702.23" r="76.04" gradientTransform="translate(3278.75 3803.49) rotate(-90) scale(0.77 0.41)" xlink:href="#radial-gradient"/><radialGradient id="radial-gradient-11" cx="3758.09" cy="-9178.41" r="76.04" gradientTransform="translate(3325.03 3803.49) rotate(-90) scale(0.77 0.32)" xlink:href="#radial-gradient-2"/><linearGradient id="linear-gradient-15" x1="3705.59" y1="-3235.78" x2="3924.15" y2="-3235.78" gradientTransform="translate(3307.79 4708.85) rotate(-90)" xlink:href="#linear-gradient"/><linearGradient id="linear-gradient-16" x1="3712.23" y1="-3235.78" x2="3930.78" y2="-3235.78" gradientTransform="translate(3307.79 4708.85) rotate(-90)" xlink:href="#linear-gradient-2"/><radialGradient id="radial-gradient-12" cx="3759.3" cy="-3257.25" r="121.9" gradientTransform="translate(3307.79 4708.85) rotate(-90)" xlink:href="#radial-gradient-3"/><linearGradient id="linear-gradient-17" x1="5345.88" y1="-2735.17" x2="5450.74" y2="-2735.17" gradientTransform="translate(5405.6 4522.2) rotate(-120)" xlink:href="#linear-gradient"/><linearGradient id="linear-gradient-18" x1="5349.42" y1="-2735.17" x2="5454.28" y2="-2735.17" gradientTransform="translate(5405.6 4522.2) rotate(-120)" xlink:href="#linear-gradient-2"/><radialGradient id="radial-gradient-13" cx="5804" cy="-6916.33" r="76.05" gradientTransform="matrix(0, -0.77, 0.41, 0, 3060.06, 5768.53)" xlink:href="#radial-gradient"/><radialGradient id="radial-gradient-14" cx="5804.01" cy="-8185.47" r="76.05" gradientTransform="matrix(0, -0.77, 0.32, 0, 3075.72, 5655.89)" xlink:href="#radial-gradient-2"/><linearGradient id="linear-gradient-19" x1="5289.03" y1="-2914.68" x2="5507.59" y2="-2914.68" gradientTransform="translate(3097.03 6702.76) rotate(-90)" xlink:href="#linear-gradient"/><linearGradient id="linear-gradient-20" x1="5295.67" y1="-2914.68" x2="5514.23" y2="-2914.68" gradientTransform="translate(3093.71 6703.65) rotate(-90)" xlink:href="#linear-gradient-2"/><radialGradient id="radial-gradient-15" cx="5342.74" cy="-2936.15" r="121.9" gradientTransform="translate(3100.01 6713.94) rotate(-90)" xlink:href="#radial-gradient-3"/><linearGradient id="linear-gradient-21" x1="6556.78" y1="-1665.88" x2="6661.64" y2="-1665.88" gradientTransform="translate(7129.46 3311.56) rotate(-150)" xlink:href="#linear-gradient"/><linearGradient id="linear-gradient-22" x1="6560.32" y1="-1665.88" x2="6665.17" y2="-1665.88" gradientTransform="translate(7129.46 3311.56) rotate(-150)" xlink:href="#linear-gradient-2"/><radialGradient id="radial-gradient-16" cx="7368.07" cy="-4301.92" r="76.05" gradientTransform="matrix(0, -0.77, 0.41, 0, 2270.46, 7258.71)" xlink:href="#radial-gradient"/><radialGradient id="radial-gradient-17" cx="7367.95" cy="-4881.14" r="76.05" gradientTransform="matrix(0, -0.77, 0.32, 0, 2203.5, 7062.98)" xlink:href="#radial-gradient-2"/><linearGradient id="linear-gradient-23" x1="6499.93" y1="-1845.39" x2="6718.49" y2="-1845.39" gradientTransform="matrix(0, -1, 1, 0, 2328.47, 8214.14)" xlink:href="#linear-gradient"/><linearGradient id="linear-gradient-24" x1="6506.56" y1="-1845.39" x2="6725.12" y2="-1845.39" gradientTransform="matrix(0, -1, 1, 0, 2322.72, 8217.47)" xlink:href="#linear-gradient-2"/><radialGradient id="radial-gradient-18" cx="6553.64" cy="-1866.86" r="121.9" gradientTransform="translate(2339.63 8233.5) rotate(-90)" xlink:href="#radial-gradient-3"/><linearGradient id="linear-gradient-25" x1="7070.23" y1="-134.27" x2="7175.09" y2="-134.27" gradientTransform="translate(8016.63 1401.06) rotate(180)" xlink:href="#linear-gradient"/><linearGradient id="linear-gradient-26" x1="7073.77" y1="-134.27" x2="7178.62" y2="-134.27" gradientTransform="translate(8016.63 1401.06) rotate(180)" xlink:href="#linear-gradient-2"/><radialGradient id="radial-gradient-19" cx="8030.61" cy="-554.47" r="76.04" gradientTransform="translate(7111.28 1430.09) rotate(180) scale(0.77 0.41)" xlink:href="#radial-gradient"/><radialGradient id="radial-gradient-20" cx="8030.61" cy="-145.94" r="76.04" gradientTransform="translate(7111.28 1383.81) rotate(180) scale(0.77 0.32)" xlink:href="#radial-gradient-2"/><linearGradient id="linear-gradient-27" x1="7013.38" y1="-313.78" x2="7231.94" y2="-313.78" gradientTransform="translate(8016.63 1401.06) rotate(180)" xlink:href="#linear-gradient"/><linearGradient id="linear-gradient-28" x1="7020.02" y1="-313.78" x2="7238.57" y2="-313.78" gradientTransform="translate(8016.63 1401.06) rotate(180)" xlink:href="#linear-gradient-2"/><radialGradient id="radial-gradient-21" cx="7067.09" cy="-335.25" r="121.9" gradientTransform="translate(8016.63 1401.06) rotate(180)" xlink:href="#radial-gradient-3"/><linearGradient id="linear-gradient-29" x1="6749.49" y1="1449.36" x2="6854.34" y2="1449.36" gradientTransform="translate(7829.99 -696.76) rotate(150)" xlink:href="#linear-gradient"/><linearGradient id="linear-gradient-30" x1="6753.03" y1="1449.36" x2="6857.88" y2="1449.36" gradientTransform="translate(7829.99 -696.76) rotate(150)" xlink:href="#linear-gradient-2"/><radialGradient id="radial-gradient-22" cx="7616.95" cy="3320.38" r="76.05" gradientTransform="matrix(-0.77, 0, 0, -0.41, 7172.16, 2911.21)" xlink:href="#radial-gradient"/><radialGradient id="radial-gradient-23" cx="7617.39" cy="4752.64" r="76.05" gradientTransform="matrix(-0.77, 0, 0, -0.32, 7059.51, 2895.55)" xlink:href="#radial-gradient-2"/><linearGradient id="linear-gradient-31" x1="6692.64" y1="1269.85" x2="6911.2" y2="1269.85" gradientTransform="matrix(-1, 0, 0, -1, 8106.39, 2874.24)" xlink:href="#linear-gradient"/><linearGradient id="linear-gradient-32" x1="6699.27" y1="1269.85" x2="6917.83" y2="1269.85" gradientTransform="translate(8107.28 2877.56) rotate(180)" xlink:href="#linear-gradient-2"/><radialGradient id="radial-gradient-24" cx="6746.35" cy="1248.38" r="121.9" gradientTransform="translate(8117.56 2871.26) rotate(180)" xlink:href="#radial-gradient-3"/><linearGradient id="linear-gradient-33" x1="5680.18" y1="2659.86" x2="5785.04" y2="2659.86" gradientTransform="translate(6619.35 -2420.62) rotate(120)" xlink:href="#linear-gradient"/><linearGradient id="linear-gradient-34" x1="5683.72" y1="2659.86" x2="5788.58" y2="2659.86" gradientTransform="translate(6619.35 -2420.62) rotate(120)" xlink:href="#linear-gradient-2"/><radialGradient id="radial-gradient-25" cx="6235.87" cy="6280.17" r="76.05" gradientTransform="matrix(-0.77, 0, 0, -0.41, 6382.07, 3842.02)" xlink:href="#radial-gradient"/><radialGradient id="radial-gradient-26" cx="6235.31" cy="8493.49" r="76.05" gradientTransform="matrix(-0.77, 0, 0, -0.32, 6186.35, 3908.97)" xlink:href="#radial-gradient-2"/><linearGradient id="linear-gradient-35" x1="5623.33" y1="2480.34" x2="5841.89" y2="2480.34" gradientTransform="translate(7337.52 3784) rotate(-180)" xlink:href="#linear-gradient"/><linearGradient id="linear-gradient-36" x1="5629.97" y1="2480.34" x2="5848.52" y2="2480.34" gradientTransform="matrix(-1, 0, 0, -1, 7340.83, 3789.75)" xlink:href="#linear-gradient-2"/><radialGradient id="radial-gradient-27" cx="5677.04" cy="2458.88" r="121.9" gradientTransform="translate(6619.35 -2420.62) rotate(120)" xlink:href="#radial-gradient-3"/><linearGradient id="linear-gradient-37" x1="4148.23" y1="3173.52" x2="4253.08" y2="3173.52" gradientTransform="translate(4708.85 -3307.79) rotate(90)" xlink:href="#linear-gradient"/><linearGradient id="linear-gradient-38" x1="4151.77" y1="3173.52" x2="4256.62" y2="3173.52" gradientTransform="translate(4708.85 -3307.79) rotate(90)" xlink:href="#linear-gradient-2"/><radialGradient id="radial-gradient-28" cx="4256.39" cy="7536.98" r="76.04" gradientTransform="translate(4737.88 -2402.43) rotate(90) scale(0.77 0.41)" xlink:href="#radial-gradient"/><radialGradient id="radial-gradient-29" cx="4256.39" cy="10079.06" r="76.04" gradientTransform="translate(4691.6 -2402.43) rotate(90) scale(0.77 0.32)" xlink:href="#radial-gradient-2"/><linearGradient id="linear-gradient-39" x1="4091.38" y1="2994.01" x2="4309.93" y2="2994.01" gradientTransform="translate(4708.85 -3307.79) rotate(90)" xlink:href="#linear-gradient"/><linearGradient id="linear-gradient-40" x1="4098.02" y1="2994.01" x2="4316.57" y2="2994.01" gradientTransform="translate(4708.85 -3307.79) rotate(90)" xlink:href="#linear-gradient-2"/><radialGradient id="radial-gradient-30" cx="4145.09" cy="2972.54" r="121.9" gradientTransform="translate(4708.85 -3307.79) rotate(90)" xlink:href="#radial-gradient-3"/><linearGradient id="linear-gradient-41" x1="2564.96" y1="2852.97" x2="2669.81" y2="2852.97" gradientTransform="translate(2611.03 -3121.15) rotate(60)" xlink:href="#linear-gradient"/><linearGradient id="linear-gradient-42" x1="2568.5" y1="2852.97" x2="2673.35" y2="2852.97" gradientTransform="translate(2611.03 -3121.15) rotate(60)" xlink:href="#linear-gradient-2"/><radialGradient id="radial-gradient-31" cx="2211.58" cy="6753.63" r="76.05" gradientTransform="matrix(0, 0.77, -0.41, 0, 4314.83, -1200.9)" xlink:href="#radial-gradient"/><radialGradient id="radial-gradient-32" cx="2212.17" cy="9091.9" r="76.05" gradientTransform="matrix(0, 0.77, -0.32, 0, 4299.17, -1088.25)" xlink:href="#radial-gradient-2"/><linearGradient id="linear-gradient-43" x1="2508.11" y1="2673.45" x2="2726.66" y2="2673.45" gradientTransform="translate(4277.87 -2135.13) rotate(90)" xlink:href="#linear-gradient"/><linearGradient id="linear-gradient-44" x1="2514.74" y1="2673.45" x2="2733.3" y2="2673.45" gradientTransform="matrix(0, 1, -1, 0, 4281.19, -2136.02)" xlink:href="#linear-gradient-2"/><radialGradient id="radial-gradient-33" cx="2561.81" cy="2651.99" r="121.9" gradientTransform="matrix(0, 1, -1, 0, 4274.88, -2146.29)" xlink:href="#radial-gradient-3"/><linearGradient id="linear-gradient-45" x1="1354.45" y1="1783.26" x2="1459.3" y2="1783.26" gradientTransform="translate(887.17 -1910.5) rotate(30)" xlink:href="#linear-gradient"/><linearGradient id="linear-gradient-46" x1="1357.98" y1="1783.26" x2="1462.84" y2="1783.26" gradientTransform="translate(887.17 -1910.5) rotate(30)" xlink:href="#linear-gradient-2"/><radialGradient id="radial-gradient-34" cx="648.13" cy="4136.14" r="76.05" gradientTransform="matrix(0, 0.77, -0.41, 0, 2965.38, -269.6)" xlink:href="#radial-gradient"/><radialGradient id="radial-gradient-35" cx="647.65" cy="5783.67" r="76.05" gradientTransform="matrix(0, 0.77, -0.32, 0, 3032.35, -73.88)" xlink:href="#radial-gradient-2"/><linearGradient id="linear-gradient-47" x1="1297.59" y1="1603.75" x2="1516.15" y2="1603.75" gradientTransform="translate(2907.38 -1225.04) rotate(90)" xlink:href="#linear-gradient"/><linearGradient id="linear-gradient-48" x1="1304.23" y1="1603.75" x2="1522.79" y2="1603.75" gradientTransform="translate(2913.12 -1228.36) rotate(90)" xlink:href="#linear-gradient-2"/><radialGradient id="radial-gradient-36" cx="1351.3" cy="1582.28" r="121.9" gradientTransform="translate(2896.21 -1244.39) rotate(90)" xlink:href="#radial-gradient-3"/><linearGradient id="linear-gradient-49" x1="280.74" y1="954.67" x2="1505" y2="954.67" xlink:href="#linear-gradient"/><linearGradient id="linear-gradient-50" x1="297.44" y1="954.67" x2="1505.7" y2="954.67" xlink:href="#linear-gradient-2"/><linearGradient id="linear-gradient-51" x1="1003.25" y1="676.3" x2="1282.32" y2="676.3" gradientTransform="translate(812.93 -609.99) rotate(45)" xlink:href="#linear-gradient"/><linearGradient id="linear-gradient-52" x1="1118.78" y1="1148.16" x2="1328.59" y2="1148.16" gradientTransform="translate(1170.28 -528.99) rotate(45)" xlink:href="#linear-gradient"/><linearGradient id="linear-gradient-53" x1="470.44" y1="925.8" x2="680.25" y2="925.8" gradientTransform="translate(823.16 -135.67) rotate(45)" xlink:href="#linear-gradient"/><linearGradient id="linear-gradient-54" x1="874.34" y1="1349.75" x2="1084.16" y2="1349.75" gradientTransform="translate(1241.23 -297.1) rotate(45)" xlink:href="#linear-gradient"/><linearGradient id="linear-gradient-55" x1="779.88" y1="1072.85" x2="908.08" y2="1072.85" gradientTransform="translate(1694.23 4.96) rotate(76.72)" xlink:href="#linear-gradient"/><linearGradient id="linear-gradient-56" x1="534.62" y1="1253.06" x2="616.07" y2="1253.06" gradientTransform="translate(1662.7 405.21) rotate(76.72)" xlink:href="#linear-gradient"/><linearGradient id="linear-gradient-57" x1="846.61" y1="494.54" x2="928.06" y2="494.54" gradientTransform="translate(609.59 -482.6) rotate(45)" xlink:href="#linear-gradient"/><radialGradient id="radial-gradient-37" cx="1334.2" cy="828.47" r="63.96" gradientTransform="translate(1938.25 -621.21) rotate(80.78)" gradientUnits="userSpaceOnUse"><stop offset="0.69" stop-color="#0098cc"/><stop offset="0.69" stop-color="#0399cd"/><stop offset="0.72" stop-color="#37aed7"/><stop offset="0.74" stop-color="#66c1e0"/><stop offset="0.77" stop-color="#8fd2e9"/><stop offset="0.8" stop-color="#b2e0f0"/><stop offset="0.83" stop-color="#ceebf5"/><stop offset="0.86" stop-color="#e4f4fa"/><stop offset="0.9" stop-color="#f3fafd"/><stop offset="0.94" stop-color="#fcfefe"/><stop offset="1" stop-color="#fff"/></radialGradient><radialGradient id="radial-gradient-38" cx="1270.24" cy="1223.69" r="71.06" gradientTransform="matrix(1, 0, 0, 1, 0, 0)" xlink:href="#radial-gradient-37"/><radialGradient id="radial-gradient-39" cx="761.25" cy="1032.66" r="76.04" gradientTransform="matrix(0.68, 0.73, -0.73, 0.68, 990.12, -339.71)" xlink:href="#radial-gradient-37"/><radialGradient id="radial-gradient-40" cx="566.86" cy="1213.38" r="76.04" gradientTransform="matrix(0.68, 0.73, -0.73, 0.68, 1054.09, -146.89)" xlink:href="#radial-gradient-37"/><radialGradient id="radial-gradient-41" cx="1065.88" cy="977.97" r="122.73" gradientTransform="matrix(1, 0, 0, 1, 0, 0)" xlink:href="#radial-gradient-37"/><radialGradient id="radial-gradient-42" cx="738.02" cy="1331.66" r="95.71" gradientTransform="translate(1157.78 -131.83) rotate(45)" xlink:href="#radial-gradient-37"/><radialGradient id="radial-gradient-43" cx="719.86" cy="631.96" r="96.93" gradientTransform="matrix(1, 0, 0, 1, 0, 0)" xlink:href="#radial-gradient-37"/><radialGradient id="radial-gradient-44" cx="967.03" cy="548.57" r="45.85" gradientTransform="matrix(1, 0, 0, 1, 0, 0)" xlink:href="#radial-gradient-37"/><radialGradient id="radial-gradient-45" cx="477.99" cy="812.13" r="45.85" gradientTransform="translate(347.17 -121.1) rotate(22.5)" xlink:href="#radial-gradient-37"/><linearGradient id="linear-gradient-58" x1="646.84" y1="628.91" x2="793.03" y2="628.91" gradientTransform="translate(1113.23 -242.38) rotate(73.15)" gradientUnits="userSpaceOnUse"><stop offset="0" stop-color="#6bc3e1"/><stop offset="1" stop-color="#45b4da"/></linearGradient><linearGradient id="linear-gradient-59" x1="652.25" y1="628.91" x2="787.62" y2="628.91" gradientTransform="translate(1242.91 -171.3) rotate(82.03)" gradientUnits="userSpaceOnUse"><stop offset="0" stop-color="#45b4da"/><stop offset="1" stop-color="#6bc3e1"/></linearGradient><linearGradient id="linear-gradient-60" x1="444.04" y1="812.13" x2="511.95" y2="812.13" gradientTransform="translate(1269.56 300.8) rotate(87.62)" gradientUnits="userSpaceOnUse"><stop offset="0" stop-color="#a6dbed"/><stop offset="1" stop-color="#d4edf6"/></linearGradient><linearGradient id="linear-gradient-61" x1="447.53" y1="812.13" x2="508.46" y2="812.13" gradientTransform="translate(1267.63 297.83) rotate(87.4)" gradientUnits="userSpaceOnUse"><stop offset="0" stop-color="#d4edf6"/><stop offset="1" stop-color="#a6dbed"/></linearGradient><linearGradient id="linear-gradient-62" x1="933.08" y1="548.57" x2="1000.99" y2="548.57" gradientUnits="userSpaceOnUse"><stop offset="0" stop-color="#6bc3e1"/><stop offset="0.59" stop-color="#8dd1e8"/><stop offset="1" stop-color="#a1d9ec"/></linearGradient><linearGradient id="linear-gradient-63" x1="937.45" y1="548.57" x2="996.62" y2="548.57" gradientUnits="userSpaceOnUse"><stop offset="0" stop-color="#a1d9ec"/><stop offset="0.41" stop-color="#8dd1e8"/><stop offset="1" stop-color="#6bc3e1"/></linearGradient><linearGradient id="linear-gradient-64" x1="1286.07" y1="828.47" x2="1382.33" y2="828.47" gradientTransform="translate(2027.16 -580.88) rotate(84.35)" xlink:href="#linear-gradient-61"/><linearGradient id="linear-gradient-65" x1="1291.62" y1="828.47" x2="1376.78" y2="828.47" gradientTransform="translate(1589.03 -721.21) rotate(67.5)" xlink:href="#linear-gradient-60"/><radialGradient id="radial-gradient-46" cx="1118.78" cy="697.6" r="72.91" gradientTransform="translate(820.96 -586.77) rotate(45)" xlink:href="#radial-gradient-37"/><linearGradient id="linear-gradient-66" x1="1063.92" y1="697.6" x2="1173.64" y2="697.6" gradientTransform="translate(93.62 -131.47) rotate(7.02)" xlink:href="#linear-gradient-61"/><linearGradient id="linear-gradient-67" x1="1070.24" y1="697.6" x2="1167.32" y2="697.6" gradientTransform="translate(820.96 -586.77) rotate(45)" xlink:href="#linear-gradient-60"/><linearGradient id="linear-gradient-68" x1="667.8" y1="1331.66" x2="808.24" y2="1331.66" gradientTransform="translate(1157.78 -131.83) rotate(45)" xlink:href="#linear-gradient-63"/><linearGradient id="linear-gradient-69" x1="673.66" y1="1331.66" x2="802.38" y2="1331.66" xlink:href="#linear-gradient-62"/><linearGradient id="linear-gradient-70" x1="695.93" y1="921.12" x2="809.63" y2="921.12" gradientUnits="userSpaceOnUse"><stop offset="0" stop-color="#6ec4e2"/><stop offset="0.32" stop-color="#5abcde"/><stop offset="0.96" stop-color="#28a7d4"/><stop offset="1" stop-color="#24a6d3"/></linearGradient><linearGradient id="linear-gradient-71" x1="699.75" y1="921.12" x2="805.81" y2="921.12" gradientUnits="userSpaceOnUse"><stop offset="0" stop-color="#24a6d3"/><stop offset="0.04" stop-color="#28a7d4"/><stop offset="0.68" stop-color="#5abcde"/><stop offset="1" stop-color="#6ec4e2"/></linearGradient><linearGradient id="linear-gradient-72" x1="973.95" y1="977.97" x2="1157.8" y2="977.97" gradientTransform="translate(1003.72 -467.25) rotate(45)" gradientUnits="userSpaceOnUse"><stop offset="0" stop-color="#80cbe6"/><stop offset="0.36" stop-color="#8dd1e8"/><stop offset="1" stop-color="#a1d9ec"/></linearGradient><linearGradient id="linear-gradient-73" x1="983.61" y1="977.97" x2="1148.14" y2="977.97" gradientTransform="translate(1561.51 -381.02) rotate(67.5)" gradientUnits="userSpaceOnUse"><stop offset="0" stop-color="#a1d9ec"/><stop offset="0.64" stop-color="#8dd1e8"/><stop offset="1" stop-color="#80cbe6"/></linearGradient><linearGradient id="linear-gradient-74" x1="498.62" y1="1094.76" x2="605.41" y2="1094.76" gradientTransform="matrix(1, 0, 0, 1, 0, 0)" xlink:href="#linear-gradient-59"/><linearGradient id="linear-gradient-75" x1="503.7" y1="1094.76" x2="600.33" y2="1094.76" gradientTransform="translate(1490.66 305.99) rotate(76.72)" xlink:href="#linear-gradient-58"/><linearGradient id="linear-gradient-76" x1="1216.84" y1="1223.69" x2="1323.64" y2="1223.69" gradientTransform="matrix(1, 0, 0, 1, 0, 0)" xlink:href="#linear-gradient-58"/><linearGradient id="linear-gradient-77" x1="1221.09" y1="1223.69" x2="1319.39" y2="1223.69" gradientTransform="matrix(1, 0, 0, 1, 0, 0)" xlink:href="#linear-gradient-59"/><radialGradient id="radial-gradient-47" cx="1002.15" cy="1223.69" r="46.99" gradientTransform="matrix(1, 0, 0, 1, 0, 0)" xlink:href="#radial-gradient-37"/><linearGradient id="linear-gradient-78" x1="966.83" y1="1223.69" x2="1037.46" y2="1223.69" gradientTransform="translate(1158.8 -350.21) rotate(45)" xlink:href="#linear-gradient-58"/><linearGradient id="linear-gradient-79" x1="969.64" y1="1223.69" x2="1034.65" y2="1223.69" gradientTransform="matrix(1, 0, 0, 1, 0, 0)" xlink:href="#linear-gradient-59"/></defs><g class="cls-1"><g id="Layer_2" data-name="Layer 2"><g id="Layer_1-2" data-name="Layer 1"><path class="cls-2" d="M945.29,112.93H840.44l.34,1.87A1125.84,1125.84,0,0,1,856,390.11h73.78A1125.84,1125.84,0,0,1,945,114.8Z"/><path class="cls-3" d="M948.83,112.93H844l.34,1.87a1126.34,1126.34,0,0,1,15.2,275.31H933.3A1125.84,1125.84,0,0,1,948.5,114.8Z"/><ellipse class="cls-4" cx="892.87" cy="130.08" rx="58.87" ry="31.09"/><ellipse class="cls-5" cx="892.87" cy="355.82" rx="58.87" ry="24.6"/><ellipse class="cls-6" cx="892.87" cy="72.01" rx="109.28" ry="72.01"/><ellipse class="cls-7" cx="899.5" cy="72.01" rx="109.28" ry="72.01"/><ellipse class="cls-8" cx="892.87" cy="49.67" rx="67.31" ry="30.04"/><path class="cls-9" d="M548.1,191.56l-45.4,26.21L457.29,244l1.23,1.46A1126,1126,0,0,1,609.34,476.26l31.95-18.44,32-18.45a1125.89,1125.89,0,0,1-124.5-246Z"/><path class="cls-10" d="M551.16,189.79,505.76,216l-45.4,26.21,1.23,1.46A1125.53,1125.53,0,0,1,612.4,474.49l32-18.44L676.3,437.6a1125.85,1125.85,0,0,1-124.49-246Z"/><ellipse class="cls-11" cx="511.27" cy="232.63" rx="58.87" ry="31.09" transform="translate(-47.82 286.8) rotate(-30)"/><ellipse class="cls-12" cx="624.14" cy="428.12" rx="58.87" ry="24.6" transform="translate(-130.44 369.43) rotate(-30)"/><ellipse class="cls-13" cx="482.24" cy="182.33" rx="109.28" ry="72.01" transform="translate(-26.56 265.55) rotate(-30)"/><ellipse class="cls-14" cx="487.98" cy="179.02" rx="109.28" ry="72.01" transform="matrix(0.87, -0.5, 0.5, 0.87, -24.13, 267.97)"/><ellipse class="cls-15" cx="471.06" cy="162.98" rx="67.31" ry="30.04" transform="translate(-18.38 257.37) rotate(-30)"/><path class="cls-16" d="M243.43,458.25l-26.21,45.4L191,549.06l1.8.64a1126.07,1126.07,0,0,1,246,124.49l18.44-32,18.45-32A1125.53,1125.53,0,0,1,244.89,459.48Z"/><path class="cls-17" d="M245.2,455.19,219,500.59,192.77,546l1.8.65a1126.07,1126.07,0,0,1,246,124.49l18.44-32,18.45-31.95A1126.35,1126.35,0,0,1,246.66,456.42Z"/><ellipse class="cls-18" cx="232.07" cy="512.23" rx="58.87" ry="31.09" transform="translate(-327.57 457.1) rotate(-60)"/><ellipse class="cls-19" cx="427.57" cy="625.1" rx="58.87" ry="24.6" transform="translate(-327.57 682.83) rotate(-60)"/><ellipse class="cls-20" cx="181.78" cy="483.19" rx="109.28" ry="72.01" transform="translate(-327.57 399.02) rotate(-60)"/><ellipse class="cls-21" cx="185.1" cy="477.45" rx="109.28" ry="72.01" transform="translate(-320.93 399.02) rotate(-60)"/><ellipse class="cls-22" cx="162.43" cy="472.02" rx="67.31" ry="30.04" transform="translate(-327.57 376.68) rotate(-60)"/><path class="cls-23" d="M112.93,841.55V946.4l1.87-.34a1125.84,1125.84,0,0,1,275.31-15.19V857.08A1125.84,1125.84,0,0,1,114.8,841.89Z"/><path class="cls-24" d="M112.93,838V942.86l1.87-.34a1125.84,1125.84,0,0,1,275.31-15.19V853.54A1125.84,1125.84,0,0,1,114.8,838.35Z"/><ellipse class="cls-25" cx="130.08" cy="893.97" rx="31.09" ry="58.87"/><ellipse class="cls-26" cx="355.82" cy="893.97" rx="24.6" ry="58.87"/><ellipse class="cls-27" cx="72.01" cy="893.97" rx="72.01" ry="109.28"/><ellipse class="cls-28" cx="72.01" cy="887.34" rx="72.01" ry="109.28"/><ellipse class="cls-29" cx="49.67" cy="893.97" rx="30.04" ry="67.31"/><path class="cls-30" d="M191.56,1238.74l26.21,45.41,26.21,45.4,1.46-1.23a1125.53,1125.53,0,0,1,230.82-150.81l-18.44-32-18.45-32a1125.85,1125.85,0,0,1-246,124.49Z"/><path class="cls-31" d="M189.79,1235.68l26.21,45.4,26.21,45.4,1.46-1.23a1126.35,1126.35,0,0,1,230.82-150.81l-18.44-32-18.45-32a1125.85,1125.85,0,0,1-246,124.49Z"/><ellipse class="cls-32" cx="232.63" cy="1275.57" rx="31.09" ry="58.87" transform="translate(-606.62 287.21) rotate(-30)"/><ellipse class="cls-33" cx="428.12" cy="1162.7" rx="24.6" ry="58.87" transform="translate(-523.99 369.83) rotate(-30)"/><ellipse class="cls-34" cx="182.33" cy="1304.61" rx="72.01" ry="109.28" transform="translate(-627.87 265.95) rotate(-30)"/><ellipse class="cls-35" cx="179.02" cy="1298.86" rx="72.01" ry="109.28" transform="matrix(0.87, -0.5, 0.5, 0.87, -625.45, 263.52)"/><ellipse class="cls-36" cx="162.98" cy="1315.78" rx="30.04" ry="67.31" transform="translate(-636.05 257.77) rotate(-30)"/><path class="cls-37" d="M458.25,1543.41l45.4,26.22,45.41,26.21.64-1.79a1125.63,1125.63,0,0,1,124.49-246l-32-18.45-32-18.45A1125.59,1125.59,0,0,1,459.48,1542Z"/><path class="cls-38" d="M455.19,1541.64l45.4,26.22,45.4,26.21.65-1.79a1125.63,1125.63,0,0,1,124.49-246l-32-18.45-31.95-18.45a1126.42,1126.42,0,0,1-150.81,230.83Z"/><ellipse class="cls-39" cx="512.23" cy="1554.77" rx="31.09" ry="58.87" transform="matrix(0.5, -0.87, 0.87, 0.5, -1090.36, 1220.99)"/><ellipse class="cls-40" cx="625.1" cy="1359.27" rx="24.6" ry="58.87" transform="translate(-864.62 1220.99) rotate(-60)"/><ellipse class="cls-41" cx="483.19" cy="1605.06" rx="72.01" ry="109.28" transform="translate(-1148.43 1220.99) rotate(-60)"/><ellipse class="cls-42" cx="477.45" cy="1601.74" rx="72.01" ry="109.28" transform="translate(-1148.43 1214.35) rotate(-60)"/><ellipse class="cls-43" cx="472.02" cy="1624.41" rx="30.04" ry="67.31" transform="translate(-1170.77 1220.99) rotate(-60)"/><path class="cls-44" d="M841.55,1673.91H946.4l-.34-1.87a1125.78,1125.78,0,0,1-15.19-275.3H857.08A1125.78,1125.78,0,0,1,841.89,1672Z"/><path class="cls-45" d="M838,1673.91H942.86l-.34-1.87a1125.78,1125.78,0,0,1-15.19-275.3H853.54A1125.78,1125.78,0,0,1,838.35,1672Z"/><ellipse class="cls-46" cx="893.97" cy="1656.76" rx="58.87" ry="31.09"/><ellipse class="cls-47" cx="893.97" cy="1431.02" rx="58.87" ry="24.6"/><ellipse class="cls-48" cx="893.97" cy="1714.83" rx="109.28" ry="72.01"/><ellipse class="cls-49" cx="887.34" cy="1714.83" rx="109.28" ry="72.01"/><ellipse class="cls-50" cx="893.97" cy="1737.18" rx="67.31" ry="30.04"/><path class="cls-51" d="M1238.74,1595.29l45.41-26.22,45.4-26.21-1.23-1.46a1125.53,1125.53,0,0,1-150.81-230.82l-32,18.45-32,18.44a1126.07,1126.07,0,0,1,124.49,246Z"/><path class="cls-52" d="M1235.68,1597.05l45.4-26.21,45.4-26.21-1.23-1.46a1126.35,1126.35,0,0,1-150.81-230.82l-32,18.45-32,18.44a1126.07,1126.07,0,0,1,124.49,246Z"/><ellipse class="cls-53" cx="1275.57" cy="1554.22" rx="58.87" ry="31.09" transform="translate(-606.21 846.01) rotate(-30)"/><ellipse class="cls-54" cx="1162.7" cy="1358.72" rx="58.87" ry="24.6" transform="translate(-523.59 763.39) rotate(-30)"/><ellipse class="cls-55" cx="1304.61" cy="1604.51" rx="109.28" ry="72.01" transform="translate(-627.47 867.26) rotate(-30)"/><ellipse class="cls-56" cx="1298.86" cy="1607.83" rx="109.28" ry="72.01" transform="translate(-629.9 864.84) rotate(-30)"/><ellipse class="cls-57" cx="1315.78" cy="1623.86" rx="67.31" ry="30.04" transform="translate(-635.65 875.45) rotate(-30)"/><path class="cls-58" d="M1543.41,1328.59l26.21-45.4,26.22-45.4-1.79-.65a1125.63,1125.63,0,0,1-246-124.49l-18.45,31.95-18.45,32A1125.59,1125.59,0,0,1,1542,1327.36Z"/><path class="cls-59" d="M1541.64,1331.66l26.22-45.41,26.21-45.4-1.79-.64a1125.67,1125.67,0,0,1-246-124.5l-18.45,32-18.44,31.95a1126.25,1126.25,0,0,1,230.82,150.82Z"/><ellipse class="cls-60" cx="1554.77" cy="1274.61" rx="58.87" ry="31.09" transform="translate(-326.46 1983.78) rotate(-60)"/><ellipse class="cls-61" cx="1359.27" cy="1161.74" rx="58.87" ry="24.6" transform="translate(-326.46 1758.04) rotate(-60)"/><ellipse class="cls-62" cx="1605.06" cy="1303.65" rx="109.28" ry="72.01" transform="translate(-326.46 2041.85) rotate(-60)"/><ellipse class="cls-63" cx="1601.74" cy="1309.4" rx="109.28" ry="72.01" transform="matrix(0.5, -0.87, 0.87, 0.5, -333.1, 2041.85)"/><path class="cls-64" d="M1598.39,1299.8c20.55-35.59,50.74-48.43,59.68-43.27s12.91,37.72-7.64,73.31-50.74,48.43-59.67,43.27S1577.84,1335.39,1598.39,1299.8Z"/><path class="cls-65" d="M1673.91,945.29V840.44l-1.87.34a1125.79,1125.79,0,0,1-275.3,15.2v73.78A1125.79,1125.79,0,0,1,1672,945Z"/><path class="cls-66" d="M1673.91,948.83V844l-1.87.34a1126.28,1126.28,0,0,1-275.3,15.2V933.3A1125.79,1125.79,0,0,1,1672,948.5Z"/><ellipse class="cls-67" cx="1656.76" cy="892.87" rx="31.09" ry="58.87"/><ellipse class="cls-68" cx="1431.02" cy="892.87" rx="24.6" ry="58.87"/><ellipse class="cls-69" cx="1714.83" cy="892.87" rx="72.01" ry="109.28"/><ellipse class="cls-70" cx="1714.83" cy="899.5" rx="72.01" ry="109.28"/><ellipse class="cls-71" cx="1737.18" cy="892.87" rx="30.04" ry="67.31"/><path class="cls-72" d="M1595.29,548.1l-26.22-45.4-26.21-45.41-1.46,1.23a1126,1126,0,0,1-230.82,150.82L1329,641.29l18.44,32a1126.11,1126.11,0,0,1,246-124.5Z"/><path class="cls-73" d="M1597.05,551.16l-26.21-45.4-26.21-45.4-1.46,1.23A1125.53,1125.53,0,0,1,1312.35,612.4l18.45,32,18.44,31.95a1126.07,1126.07,0,0,1,246-124.49Z"/><ellipse class="cls-74" cx="1554.22" cy="511.27" rx="31.09" ry="58.87" transform="translate(-47.41 845.6) rotate(-30)"/><ellipse class="cls-75" cx="1358.72" cy="624.14" rx="24.6" ry="58.87" transform="translate(-130.04 762.98) rotate(-30)"/><ellipse class="cls-76" cx="1604.51" cy="482.24" rx="72.01" ry="109.28" transform="translate(-26.15 866.86) rotate(-30)"/><ellipse class="cls-77" cx="1607.83" cy="487.98" rx="72.01" ry="109.28" transform="translate(-28.58 869.29) rotate(-30)"/><ellipse class="cls-78" cx="1623.86" cy="471.06" rx="30.04" ry="67.31" transform="translate(-17.98 875.04) rotate(-30)"/><path class="cls-79" d="M1328.59,243.43l-45.4-26.21L1237.79,191l-.65,1.79a1126.07,1126.07,0,0,1-124.49,246l31.95,18.44,32,18.45a1125.53,1125.53,0,0,1,150.81-230.82Z"/><path class="cls-80" d="M1331.66,245.2,1286.25,219l-45.4-26.22-.64,1.8a1126.11,1126.11,0,0,1-124.5,246l32,18.44,31.95,18.45a1126,1126,0,0,1,150.82-230.82Z"/><ellipse class="cls-81" cx="1274.61" cy="232.07" rx="31.09" ry="58.87" transform="matrix(0.5, -0.87, 0.87, 0.5, 436.33, 1219.88)"/><ellipse class="cls-82" cx="1161.74" cy="427.57" rx="24.6" ry="58.87" transform="translate(210.59 1219.88) rotate(-60)"/><ellipse class="cls-83" cx="1303.65" cy="181.78" rx="72.01" ry="109.28" transform="matrix(0.5, -0.87, 0.87, 0.5, 494.4, 1219.88)"/><ellipse class="cls-84" cx="1309.4" cy="185.1" rx="72.01" ry="109.28" transform="translate(494.4 1226.52) rotate(-60)"/><ellipse class="cls-85" cx="1314.82" cy="162.43" rx="30.04" ry="67.31" transform="translate(516.74 1219.88) rotate(-60)"/><ellipse class="cls-86" cx="703.63" cy="248.42" rx="45.53" ry="30" transform="translate(-40.32 190.57) rotate(-15)"/><path class="cls-86" d="M729.14,259.24,708,264.89l-21.1,5.65.34.72a468.75,468.75,0,0,1,35.8,109.16l14.85-4,14.85-4A469.21,469.21,0,0,1,729.21,260Z"/><path class="cls-87" d="M408.05,405.47c11.72,11.71,6.8,35.62-11,53.4s-41.69,22.7-53.41,11-6.8-35.62,11-53.4S396.34,393.75,408.05,405.47Z"/><path class="cls-87" d="M403.36,434.27l-15.45,15.45-15.44,15.44.65.45a469.52,469.52,0,0,1,85.59,76.63l10.86-10.86,10.87-10.87a469.19,469.19,0,0,1-76.63-85.59Z"/><path class="cls-86" d="M198.4,721.45c16,4.29,23.71,27.46,17.2,51.75s-24.76,40.5-40.76,36.21-23.71-27.46-17.2-51.74S182.4,717.16,198.4,721.45Z"/><path class="cls-86" d="M208.74,748.74l-5.65,21.1-5.66,21.1.8.07a469.21,469.21,0,0,1,112.43,23.57l4-14.85,4-14.84a469.24,469.24,0,0,1-109.16-35.81Z"/><ellipse class="cls-87" cx="186.62" cy="1143.91" rx="30" ry="45.53" transform="translate(-289.71 87.28) rotate(-15)"/><path class="cls-87" d="M197.43,1118.4l5.66,21.1,5.65,21.09.72-.33a468.77,468.77,0,0,1,109.16-35.81l-4-14.84-4-14.85a469.21,469.21,0,0,1-112.43,23.57Z"/><path class="cls-86" d="M343.66,1439.49c11.72-11.72,35.63-6.81,53.41,11s22.7,41.7,11,53.41-35.63,6.8-53.41-11S332,1451.2,343.66,1439.49Z"/><path class="cls-86" d="M372.47,1444.18l15.44,15.44,15.45,15.45.45-.65a469.19,469.19,0,0,1,76.63-85.59L469.57,1378l-10.86-10.87a469.16,469.16,0,0,1-85.59,76.63Z"/><ellipse class="cls-87" cx="703.63" cy="1660.92" rx="30" ry="45.53" transform="translate(-1082.81 1910.7) rotate(-75)"/><path class="cls-87" d="M686.94,1638.8l21.1,5.65,21.1,5.65.07-.79a469.21,469.21,0,0,1,23.57-112.43l-14.85-4-14.85-4a468.75,468.75,0,0,1-35.8,109.16Z"/><ellipse class="cls-86" cx="1082.11" cy="1660.92" rx="45.53" ry="30" transform="translate(-393 336.66) rotate(-15)"/><path class="cls-86" d="M1056.6,1650.1l21.09-5.65,21.1-5.65-.33-.72a468.77,468.77,0,0,1-35.81-109.16l-14.84,4-14.85,4a469.21,469.21,0,0,1,23.57,112.43Z"/><path class="cls-87" d="M1377.68,1503.87c-11.71-11.71-6.8-35.62,11-53.41s41.7-22.69,53.41-11,6.8,35.62-11,53.4S1389.4,1515.59,1377.68,1503.87Z"/><path class="cls-87" d="M1382.38,1475.07l15.44-15.45,15.45-15.44-.65-.46a468.83,468.83,0,0,1-85.59-76.63L1316.16,1378l-10.87,10.87a468.83,468.83,0,0,1,76.63,85.59Z"/><ellipse class="cls-86" cx="1599.12" cy="1143.91" rx="45.53" ry="30" transform="matrix(0.26, -0.97, 0.97, 0.26, 80.31, 2392.47)"/><path class="cls-86" d="M1577,1160.59l5.65-21.09,5.65-21.1-.79-.07a469.21,469.21,0,0,1-112.43-23.57l-4,14.85-4,14.84a468.77,468.77,0,0,1,109.16,35.81Z"/><path class="cls-87" d="M1610.9,809.41c-16,4.29-34.25-11.93-40.76-36.21s1.19-47.46,17.19-51.75,34.26,11.93,40.77,36.22S1626.91,805.12,1610.9,809.41Z"/><path class="cls-87" d="M1588.3,790.94l-5.65-21.1-5.65-21.1-.72.34a469.24,469.24,0,0,1-109.16,35.81l4,14.84,4,14.85A469.21,469.21,0,0,1,1587.51,791Z"/><path class="cls-86" d="M1442.07,469.85c-11.71,11.72-35.63,6.8-53.41-11s-22.69-41.69-11-53.4,35.63-6.8,53.41,11S1453.79,458.14,1442.07,469.85Z"/><path class="cls-86" d="M1413.27,465.16l-15.45-15.44-15.44-15.45-.46.65a468.83,468.83,0,0,1-76.63,85.59l10.87,10.87L1327,542.24a469.19,469.19,0,0,1,85.59-76.63Z"/><ellipse class="cls-87" cx="1082.11" cy="248.42" rx="30" ry="45.53" transform="translate(562.08 1229.36) rotate(-75)"/><path class="cls-87" d="M1098.79,270.54l-21.1-5.65-21.09-5.65-.07.79A469.21,469.21,0,0,1,1033,372.46l14.85,4,14.84,4a468.77,468.77,0,0,1,35.81-109.16Z"/><path class="cls-88" d="M892.87,1566.8a610.26,610.26,0,1,1,238.27-48.11A608.34,608.34,0,0,1,892.87,1566.8Z"/><circle class="cls-89" cx="901.57" cy="954.67" r="604.13"/><circle class="cls-90" cx="1142.79" cy="676.3" r="139.54" transform="translate(-143.5 1006.16) rotate(-45)"/><circle class="cls-91" cx="1223.69" cy="1148.16" r="104.91" transform="translate(-453.46 1201.56) rotate(-45)"/><circle class="cls-92" cx="575.35" cy="925.8" r="104.91" transform="translate(-486.13 677.99) rotate(-45)"/><circle class="cls-93" cx="979.25" cy="1349.75" r="104.91" transform="translate(-667.6 1087.77) rotate(-45)"/><circle class="cls-94" cx="843.98" cy="1072.85" r="64.1" transform="translate(-394.08 1647.77) rotate(-76.72)"/><circle class="cls-95" cx="575.35" cy="1253.06" r="40.73" transform="translate(-776.38 1525.12) rotate(-76.72)"/><circle class="cls-96" cx="887.34" cy="494.54" r="40.73" transform="translate(-89.8 772.29) rotate(-45)"/><circle class="cls-97" cx="1334.2" cy="828.47" r="63.96" transform="translate(302.72 2012.73) rotate(-80.78)"/><circle class="cls-98" cx="1270.24" cy="1223.69" r="71.06"/><circle class="cls-99" cx="752.78" cy="921.12" r="76.04" transform="translate(-430.85 802.09) rotate(-45)"/><circle class="cls-100" cx="552.01" cy="1094.76" r="76.04" transform="translate(-612.43 710.98) rotate(-45)"/><circle class="cls-101" cx="1065.88" cy="977.97" r="122.73"/><circle class="cls-102" cx="738.02" cy="1331.66" r="95.71" transform="translate(-725.46 911.89) rotate(-45)"/><circle class="cls-103" cx="719.86" cy="631.96" r="96.93"/><circle class="cls-104" cx="967.03" cy="548.57" r="45.85"/><circle class="cls-105" cx="477.99" cy="812.13" r="45.85" transform="translate(-274.4 244.74) rotate(-22.5)"/><circle class="cls-106" cx="719.94" cy="628.91" r="73.1" transform="translate(-90.61 1135.7) rotate(-73.15)"/><circle class="cls-107" cx="719.94" cy="628.91" r="67.68" transform="translate(-2.75 1254.65) rotate(-82.03)"/><circle class="cls-108" cx="477.99" cy="812.13" r="33.96" transform="translate(-353.3 1255.96) rotate(-87.62)"/><circle class="cls-109" cx="477.99" cy="812.13" r="30.47" transform="translate(-354.96 1252.83) rotate(-87.4)"/><circle class="cls-110" cx="967.03" cy="548.57" r="33.95"/><circle class="cls-111" cx="967.03" cy="548.57" r="29.58"/><circle class="cls-112" cx="1334.2" cy="828.47" r="48.13" transform="translate(378.3 2074.54) rotate(-84.35)"/><circle class="cls-113" cx="1334.2" cy="828.47" r="42.58" transform="translate(58.22 1744.06) rotate(-67.5)"/><circle class="cls-114" cx="1118.78" cy="697.6" r="72.91" transform="translate(-165.6 995.42) rotate(-45)"/><circle class="cls-115" cx="1118.78" cy="697.6" r="54.86" transform="translate(-76.85 141.92) rotate(-7.02)"/><circle class="cls-116" cx="1118.78" cy="697.6" r="48.54" transform="translate(-165.6 995.42) rotate(-45)"/><circle class="cls-117" cx="738.02" cy="1331.66" r="70.22" transform="translate(-725.46 911.89) rotate(-45)"/><circle class="cls-118" cx="738.02" cy="1331.66" r="64.36"/><circle class="cls-119" cx="752.78" cy="921.12" r="56.85"/><circle class="cls-120" cx="752.78" cy="921.12" r="53.03"/><circle class="cls-121" cx="1065.88" cy="977.97" r="91.92" transform="translate(-379.34 1040.13) rotate(-45)"/><circle class="cls-122" cx="1065.88" cy="977.97" r="82.27" transform="translate(-245.55 1588.46) rotate(-67.5)"/><circle class="cls-123" cx="552.01" cy="1094.76" r="53.4"/><circle class="cls-124" cx="552.01" cy="1094.76" r="48.32" transform="translate(-640.29 1380.48) rotate(-76.72)"/><circle class="cls-125" cx="1270.24" cy="1223.69" r="53.4"/><circle class="cls-126" cx="1270.24" cy="1223.69" r="49.15"/><circle class="cls-127" cx="1002.15" cy="1223.69" r="46.99"/><circle class="cls-128" cx="1002.15" cy="1223.69" r="35.31" transform="translate(-571.75 1067.03) rotate(-45)"/><circle class="cls-129" cx="1002.15" cy="1223.69" r="32.5"/></g></g></g></svg>